{"accessors":[{"bufferView":0,"byteOffset":0,"componentType":5126,"count":228,"max":[1,1,1],"min":[-1,-1,-1],"normalized":false,"type":"VEC3"},{"bufferView":1,"byteOffset":0,"componentType":5126,"count":228,"max":[0.851608,0.094379,0.835367,1],"min":[-0.999969,-0.999872,-1,-1],"normalized":false,"type":"VEC4"},{"bufferView":2,"byteOffset":0,"componentType":5126,"count":228,"max":[1,1,1],"min":[-1,-1,-1],"normalized":false,"type":"VEC3"},{"bufferView":3,"byteOffset":0,"componentType":5126,"count":228,"max":[1,1],"min":[0,0],"normalized":false,"type":"VEC2"},{"bufferView":4,"byteOffset":0,"componentType":5125,"count":228,"max":[227],"min":[0],"normalized":false,"type":"SCALAR"}],"asset":{"generator":"Godot Engine v3.4.4.stable.official@419e713a29f20bd3351a54d1e6c4c5af7ef4b253","version":"2.0"},"bufferViews":[{"buffer":0,"byteLength":2736,"byteOffset":0},{"buffer":0,"byteLength":3648,"byteOffset":2736},{"buffer":0,"byteLength":2736,"byteOffset":6384},{"buffer":0,"byteLength":1824,"byteOffset":9120},{"buffer":0,"byteLength":912,"byteOffset":10944}],"buffers":[{"byteLength":11856,"uri":"Cube0.bin"}],"extensionsRequired":["KHR_texture_transform"],"extensionsUsed":["KHR_lights_punctual","KHR_texture_transform"],"meshes":[{"extras":{"targetNames":[]},"primitives":[{"attributes":{"NORMAL":2,"POSITION":0,"TANGENT":1,"TEXCOORD_0":3},"indices":4,"mode":4}]}],"nodes":[{"children":[1,2],"extensions":{},"mesh":0,"name":"CSGCombiner2"},{"extensions":{},"name":"CSGBox"},{"extensions":{},"name":"CSGSphere"}],"scene":0,"scenes":[{"nodes":[0]}]}