{"accessors":[{"bufferView":0,"byteOffset":0,"componentType":5126,"count":2874,"max":[1.034356,2.519037,1.034356],"min":[-1.034356,-2.964247,-1.034356],"normalized":false,"type":"VEC3"},{"bufferView":1,"byteOffset":0,"componentType":5126,"count":2874,"max":[0.999969,0.105366,0.999969,1],"min":[-0.999969,-0.999872,-1,-1],"normalized":false,"type":"VEC4"},{"bufferView":2,"byteOffset":0,"componentType":5126,"count":2874,"max":[1,1,1],"min":[-1,-1,-1],"normalized":false,"type":"VEC3"},{"bufferView":3,"byteOffset":0,"componentType":5126,"count":2874,"max":[1,1],"min":[0,0],"normalized":false,"type":"VEC2"},{"bufferView":4,"byteOffset":0,"componentType":5125,"count":2874,"max":[2873],"min":[0],"normalized":false,"type":"SCALAR"}],"asset":{"generator":"Godot Engine v3.4.4.stable.official@419e713a29f20bd3351a54d1e6c4c5af7ef4b253","version":"2.0"},"bufferViews":[{"buffer":0,"byteLength":34488,"byteOffset":0},{"buffer":0,"byteLength":45984,"byteOffset":34488},{"buffer":0,"byteLength":34488,"byteOffset":80472},{"buffer":0,"byteLength":22992,"byteOffset":114960},{"buffer":0,"byteLength":11496,"byteOffset":137952}],"buffers":[{"byteLength":149448,"uri":"Gun0.bin"}],"extensionsRequired":["KHR_texture_transform"],"extensionsUsed":["KHR_lights_punctual","KHR_texture_transform"],"meshes":[{"extras":{"targetNames":[]},"primitives":[{"attributes":{"NORMAL":2,"POSITION":0,"TANGENT":1,"TEXCOORD_0":3},"indices":4,"mode":4}]}],"nodes":[{"children":[1],"extensions":{},"name":"Spatial"},{"children":[2,3,4,5,6,7,8,9],"extensions":{},"mesh":0,"name":"CSGCombiner2"},{"extensions":{},"name":"CSGTorus"},{"extensions":{},"name":"CSGTorus2","rotation":[0,0,-0.001649,0.999999],"translation":[0,1.020665,0]},{"extensions":{},"name":"CSGTorus3","rotation":[0,0,-0.001649,0.999999],"translation":[0,1.41955,0]},{"extensions":{},"name":"CSGBox","translation":[0,-1.628912,0]},{"extensions":{},"name":"CSGBox2","translation":[0,-2.474945,0]},{"extensions":{},"name":"CSGCylinder"},{"extensions":{},"name":"CSGCylinder2","translation":[0,1.557522,0]},{"extensions":{},"name":"CSGCylinder3","translation":[0,2.39221,0]}],"scene":0,"scenes":[{"nodes":[0]}]}