<?xml version="1.0" encoding="UTF-8" standalone="no"?>
<!-- Created with Inkscape (http://www.inkscape.org/) -->

<svg
   width="32"
   height="32"
   viewBox="0 0 8.4666665 8.4666666"
   version="1.1"
   id="svg5"
   inkscape:version="1.2 (dc2aedaf03, 2022-05-15)"
   sodipodi:docname="io-icon.svg"
   xmlns:inkscape="http://www.inkscape.org/namespaces/inkscape"
   xmlns:sodipodi="http://sodipodi.sourceforge.net/DTD/sodipodi-0.dtd"
   xmlns="http://www.w3.org/2000/svg"
   xmlns:svg="http://www.w3.org/2000/svg">
  <sodipodi:namedview
     id="namedview7"
     pagecolor="#505050"
     bordercolor="#eeeeee"
     borderopacity="1"
     inkscape:showpageshadow="0"
     inkscape:pageopacity="0"
     inkscape:pagecheckerboard="0"
     inkscape:deskcolor="#505050"
     inkscape:document-units="mm"
     showgrid="false"
     inkscape:zoom="17.678304"
     inkscape:cx="16.771971"
     inkscape:cy="21.155875"
     inkscape:window-width="1920"
     inkscape:window-height="1057"
     inkscape:window-x="-8"
     inkscape:window-y="-8"
     inkscape:window-maximized="1"
     inkscape:current-layer="layer1" />
  <defs
     id="defs2" />
  <g
     inkscape:label="Warstwa 1"
     inkscape:groupmode="layer"
     id="layer1">
    <path
       id="rect8193"
       style="fill:#d4aa00;fill-opacity:1;stroke:none;stroke-width:6.00002"
       d="M 0.56129134,1.8234778 C 0.25042785,1.8234778 1.2216608e-8,2.0773887 1.2216608e-8,2.3925758 V 6.0740905 C 1.2216608e-8,6.3892779 0.25042785,6.6431887 0.56129134,6.6431887 H 7.9053752 c 0.3108635,0 0.5612914,-0.2539108 0.5612914,-0.5690982 V 2.3925758 c 0,-0.3151871 -0.2504279,-0.569098 -0.5612914,-0.569098 z M 6.1223493,2.7103463 c 0.1820565,0 0.3496898,0.032013 0.5037376,0.095909 0.1540478,0.063896 0.2874223,0.1538564 0.399457,0.269816 0.1143689,0.1159595 0.2030953,0.2533891 0.2661149,0.411946 0.06302,0.1561903 0.094593,0.327833 0.094593,0.5147881 0,0.1845886 -0.031574,0.3545534 -0.094593,0.5107437 -0.06302,0.1561904 -0.151746,0.2925204 -0.2661149,0.4084793 -0.1120347,0.11596 -0.2454092,0.2059199 -0.399457,0.269816 -0.1540478,0.063896 -0.3216811,0.095906 -0.5037376,0.095906 -0.1843905,0 -0.3547636,-0.03201 -0.5111455,-0.095906 C 5.457156,5.1279483 5.3226966,5.0390885 5.2083277,4.9254954 5.0962929,4.8095354 5.0086515,4.6737837 4.9456319,4.5175934 4.8826124,4.3590365 4.8510387,4.185716 4.8510387,3.9987609 c 0,-0.1845886 0.031574,-0.3545534 0.094593,-0.5107437 0.06302,-0.158557 0.150661,-0.2959865 0.2626958,-0.4119461 C 5.3226968,2.9601116 5.4571562,2.8701512 5.611204,2.8062552 5.7675859,2.7423591 5.937959,2.7103462 6.1223493,2.7103463 Z M 1.0804146,2.7675453 H 2.5055817 V 3.2782887 H 2.0924485 V 4.7411882 H 2.5055817 V 5.2519314 H 1.0804146 V 4.7411882 H 1.4935478 V 3.2782887 H 1.0804146 Z m 3.1654551,0 H 4.8020325 L 3.3495132,5.7563205 H 2.7853726 Z m 1.8764796,0.5142104 c -0.095696,0 -0.1844227,0.018234 -0.2661148,0.053732 -0.079358,0.035498 -0.149585,0.086267 -0.2102705,0.1525299 -0.058352,0.063896 -0.1040844,0.1395 -0.1367613,0.2270613 -0.032677,0.087562 -0.049006,0.1835998 -0.049006,0.2877267 0,0.1372582 0.028319,0.2603315 0.084336,0.3691915 0.058352,0.1064935 0.1367432,0.1903757 0.2347736,0.2519052 0.1003649,0.061529 0.2146699,0.092442 0.3430431,0.092442 0.095696,0 0.1827679,-0.018234 0.2621259,-0.053732 0.079358,-0.035498 0.1485001,-0.085167 0.2068515,-0.1490632 0.060685,-0.063896 0.1075039,-0.1395002 0.1401803,-0.2270613 0.032677,-0.087562 0.049006,-0.1819221 0.049006,-0.2836824 0,-0.1041266 -0.01633,-0.2001655 -0.049006,-0.2877267 C 6.6988303,3.6275173 6.6520122,3.5519132 6.5913267,3.4880172 6.5329753,3.4217546 6.4638331,3.3709851 6.3844752,3.3354874 6.3051173,3.2999895 6.2180456,3.2817553 6.1223493,3.2817557 Z" />
  </g>
</svg>
